<svg preserveAspectRatio="none" overflow="visible" style="display: block;" width="328" height="409" viewBox="0 0 328 409" fill="none" xmlns="http://www.w3.org/2000/svg">
<g id="Group 1010105608">
<circle id="Ellipse 419" cx="251" cy="122" r="4.5" fill="#D7EDB9" stroke="#CAE7A1"/>
<circle id="Ellipse 430" cx="287" cy="104" r="4.5" fill="#D7EDB9" stroke="#CAE7A1"/>
<circle id="Ellipse 431" cx="269" cy="104" r="4.5" fill="#D7EDB9" stroke="#CAE7A1"/>
<circle id="Ellipse 440" cx="269" cy="86" r="4.5" fill="#D7EDB9" stroke="#CAE7A1"/>
<circle id="Ellipse 441" cx="287" cy="68" r="4.5" fill="#D7EDB9" stroke="#CAE7A1"/>
<circle id="Ellipse 446" cx="287" cy="32" r="4.5" fill="#D7EDB9" stroke="#CAE7A1"/>
<circle id="Ellipse 447" cx="318" cy="5" r="4.5" fill="#D7EDB9" stroke="#CAE7A1"/>
<circle id="Ellipse 452" cx="203" cy="325" r="4.5" fill="#D7EDB9" stroke="#CAE7A1"/>
<circle id="Ellipse 448" cx="234" cy="348" r="4.5" fill="#D7EDB9" stroke="#CAE7A1"/>
<circle id="Ellipse 451" cx="234" cy="404" r="4.5" fill="#D7EDB9" stroke="#CAE7A1"/>
<circle id="Ellipse 432" cx="221" cy="112" r="4.5" fill="#D7EDB9" stroke="#CAE7A1"/>
<circle id="Ellipse 433" cx="203" cy="177" r="4.5" fill="#D7EDB9" stroke="#CAE7A1"/>
<circle id="Ellipse 434" cx="185" cy="177" r="4.5" fill="#D7EDB9" stroke="#CAE7A1"/>
<circle id="Ellipse 435" cx="166" cy="194" r="4.5" fill="#D7EDB9" stroke="#CAE7A1"/>
<circle id="Ellipse 436" cx="150" cy="212" r="4.5" fill="#D7EDB9" stroke="#CAE7A1"/>
<circle id="Ellipse 437" cx="106" cy="212" r="4.5" fill="#D7EDB9" stroke="#CAE7A1"/>
<circle id="Ellipse 449" cx="27" cy="212" r="4.5" fill="#D7EDB9" stroke="#CAE7A1"/>
<circle id="Ellipse 450" cx="5" cy="195" r="4.5" fill="#D7EDB9" stroke="#CAE7A1"/>
<circle id="Ellipse 429" cx="231" cy="127" r="4.5" fill="#D7EDB9" stroke="#CAE7A1"/>
<circle id="Ellipse 420" cx="269" cy="122" r="4.5" fill="#D7EDB9" stroke="#CAE7A1"/>
<circle id="Ellipse 421" cx="287" cy="122" r="4.5" fill="#D7EDB9" stroke="#CAE7A1"/>
<circle id="Ellipse 422" cx="305" cy="122" r="4.5" fill="#D7EDB9" stroke="#CAE7A1"/>
<circle id="Ellipse 443" cx="323" cy="122" r="4.5" fill="#D7EDB9" stroke="#CAE7A1"/>
<circle id="Ellipse 423" cx="221" cy="159" r="4.5" fill="#D7EDB9" stroke="#CAE7A1"/>
<circle id="Ellipse 438" cx="203" cy="159" r="4.5" fill="#D7EDB9" stroke="#CAE7A1"/>
<circle id="Ellipse 439" cx="167" cy="177" r="4.5" fill="#D7EDB9" stroke="#CAE7A1"/>
<circle id="Ellipse 425" cx="221" cy="195" r="4.5" fill="#D7EDB9" stroke="#CAE7A1"/>
<circle id="Ellipse 445" cx="221" cy="213" r="4.5" fill="#D7EDB9" stroke="#CAE7A1"/>
<circle id="Ellipse 444" cx="203" cy="195" r="4.5" fill="#D7EDB9" stroke="#CAE7A1"/>
<circle id="Ellipse 427" cx="221" cy="249" r="4.5" fill="#D7EDB9" stroke="#CAE7A1"/>
<circle id="Ellipse 428" cx="221" cy="267" r="4.5" fill="#D7EDB9" stroke="#CAE7A1"/>
<circle id="Ellipse 442" cx="203" cy="285" r="4.5" fill="#D7EDB9" stroke="#CAE7A1"/>
<circle id="Ellipse 424" cx="221" cy="143" r="4.5" fill="#D7EDB9" stroke="#CAE7A1"/>
<circle id="Ellipse 426" cx="221" cy="177" r="4.5" fill="#D7EDB9" stroke="#CAE7A1"/>
</g>
</svg>
